ffmpeg version 3.4.8-0ubuntu0.2 Copyright (c) 2000-2020 the FFmpeg developers
  built with gcc 7 (Ubuntu 7.5.0-3ubuntu1~18.04)
  configuration: --prefix=/usr --extra-version=0ubuntu0.2 --toolchain=hardened --libdir=/usr/lib/x86_64-linux-gnu --incdir=/usr/include/x86_64-linux-gnu --enable-gpl --disable-stripping --enable-avresample --enable-avisynth --enable-gnutls --enable-ladspa --enable-libass --enable-libbluray --enable-libbs2b --enable-libcaca --enable-libcdio --enable-libflite --enable-libfontconfig --enable-libfreetype --enable-libfribidi --enable-libgme --enable-libgsm --enable-libmp3lame --enable-libmysofa --enable-libopenjpeg --enable-libopenmpt --enable-libopus --enable-libpulse --enable-librubberband --enable-librsvg --enable-libshine --enable-libsnappy --enable-libsoxr --enable-libspeex --enable-libssh --enable-libtheora --enable-libtwolame --enable-libvorbis --enable-libvpx --enable-libwavpack --enable-libwebp --enable-libx265 --enable-libxml2 --enable-libxvid --enable-libzmq --enable-libzvbi --enable-omx --enable-openal --enable-opengl --enable-sdl2 --enable-libdc1394 --enable-libdrm --enable-libiec61883 --enable-chromaprint --enable-frei0r --enable-libopencv --enable-libx264 --enable-shared
  libavutil      55. 78.100 / 55. 78.100
  libavcodec     57.107.100 / 57.107.100
  libavformat    57. 83.100 / 57. 83.100
  libavdevice    57. 10.100 / 57. 10.100
  libavfilter     6.107.100 /  6.107.100
  libavresample   3.  7.  0 /  3.  7.  0
  libswscale      4.  8.100 /  4.  8.100
  libswresample   2.  9.100 /  2.  9.100
  libpostproc    54.  7.100 / 54.  7.100
[rawvideo @ 0x55d87efc3a20] Estimating duration from bitrate, this may be inaccurate
Input #0, rawvideo, from '../../SVC-Encoder-20220109T061506Z-001/SVC-Encoder/Dataset/RollerCoaster/6f_2x2/tile_yuv/f1_t1_480x480.yuv':
  Duration: 00:00:10.00, start: 0.000000, bitrate: 82944 kb/s
    Stream #0:0: Video: rawvideo (I420 / 0x30323449), yuv420p, 480x480, 82944 kb/s, 30 tbr, 30 tbn, 30 tbc
Stream mapping:
  Stream #0:0 -> #0:0 (rawvideo (native) -> h264 (libx264))
Press [q] to stop, [?] for help
[libx264 @ 0x55d87efd0c60] using cpu capabilities: MMX2 SSE2Fast LZCNT SSSE3 SSE4.2 AVX
[libx264 @ 0x55d87efd0c60] profile High, level 3.0
Output #0, rawvideo, to 'RollerCoaster_f1_t1_480x480_x264_QP_36.h264':
  Metadata:
    encoder         : Lavf57.83.100
    Stream #0:0: Video: h264 (libx264), yuv420p, 480x480, q=-1--1, 30 fps, 30 tbn, 30 tbc
    Metadata:
      encoder         : Lavc57.107.100 libx264
    Side data:
      cpb: bitrate max/min/avg: 0/0/0 buffer size: 0 vbv_delay: -1
frame=  148 fps=0.0 q=42.0 PSNR=Y:nan U:nan V:nan *:nan size=      53kB time=00:00:03.50 bitrate= 124.1kbits/s speed=6.96x    frame=  274 fps=272 q=42.0 PSNR=Y:nan U:nan V:nan *:nan size=     102kB time=00:00:07.70 bitrate= 108.3kbits/s speed=7.66x    frame=  300 fps=242 q=42.0 LPSNR=Y:inf U:inf V:inf *:inf size=     132kB time=00:00:09.93 bitrate= 109.1kbits/s speed=8.02x    
video:132kB audio:0kB subtitle:0kB other streams:0kB global headers:0kB muxing overhead: 0.000000%
[libx264 @ 0x55d87efd0c60] frame I:2     Avg QP:34.05  size: 11277  PSNR Mean Y:34.69 U:42.58 V:46.04 Avg:36.20 Global:36.10
[libx264 @ 0x55d87efd0c60] frame P:76    Avg QP:36.26  size:  1030  PSNR Mean Y:33.18 U:42.66 V:45.74 Avg:34.76 Global:34.74
[libx264 @ 0x55d87efd0c60] frame B:222   Avg QP:41.65  size:   156  PSNR Mean Y:33.01 U:42.58 V:45.73 Avg:34.60 Global:34.59
[libx264 @ 0x55d87efd0c60] consecutive B-frames:  1.3%  0.0%  0.0% 98.7%
[libx264 @ 0x55d87efd0c60] mb I  I16..4: 22.8% 70.1%  7.1%
[libx264 @ 0x55d87efd0c60] mb P  I16..4:  0.1%  0.1%  0.0%  P16..4: 28.5%  6.0%  1.6%  0.0%  0.0%    skip:63.8%
[libx264 @ 0x55d87efd0c60] mb B  I16..4:  0.0%  0.0%  0.0%  B16..8: 16.8%  0.1%  0.0%  direct: 0.0%  skip:83.2%  L0:30.6% L1:69.3% BI: 0.1%
[libx264 @ 0x55d87efd0c60] 8x8 transform intra:68.2% inter:74.6%
[libx264 @ 0x55d87efd0c60] coded y,uvDC,uvAC intra: 59.1% 49.1% 8.5% inter: 2.0% 0.8% 0.0%
[libx264 @ 0x55d87efd0c60] i16 v,h,dc,p: 11% 48% 14% 27%
[libx264 @ 0x55d87efd0c60] i8 v,h,dc,ddl,ddr,vr,hd,vl,hu:  5% 20% 30%  5%  5%  4%  9% 10% 11%
[libx264 @ 0x55d87efd0c60] i4 v,h,dc,ddl,ddr,vr,hd,vl,hu: 12% 16% 15%  8%  9%  7% 10% 14%  8%
[libx264 @ 0x55d87efd0c60] i8c dc,h,v,p: 63% 20%  9%  8%
[libx264 @ 0x55d87efd0c60] Weighted P-Frames: Y:0.0% UV:0.0%
[libx264 @ 0x55d87efd0c60] ref P L0: 63.4% 17.6% 15.0%  4.0%
[libx264 @ 0x55d87efd0c60] ref B L0: 74.0% 22.4%  3.6%
[libx264 @ 0x55d87efd0c60] ref B L1: 77.4% 22.6%
[libx264 @ 0x55d87efd0c60] PSNR Mean Y:33.065 U:42.597 V:45.738 Avg:34.650 Global:34.632 kb/s:108.32
